# File exported by ZBrush version 2018
# www.zbrush.com
#Vertex Count 303
#Face Count 594
#Auto scale x=0.006208 y=0.006208 z=0.006208
#Auto offset x=-0.005862 y=-0.492355 z=-0.043281
v 27.97391822 112.98249654 94.09152215
v 2.34702967 145.32006882 -0.27840114
v -8.61923514 141.10343384 118.62826523
v -40.17081076 128.91995097 132.84909542
v -48.19780172 130.72439687 180.51181866
v -29.13860769 136.13758097 133.4368741
v 17.58431217 137.93321351 135.0457074
v 41.64677629 133.41735125 134.24088753
v 49.46483379 129.67783822 183.57549133
v 35.30999106 64.14917705 83.21299379
v -31.99209161 130.62801146 -11.46531938
v -33.37875458 83.99781677 -31.20919235
v 1.10463699 53.79935237 -96.68229713
v 7.68841674 89.74240703 176.45826459
v -42.38851529 70.41354961 -72.65263473
v -37.99987803 117.91813146 62.29600561
v 23.98482751 137.48503262 -39.40558623
v 25.2165869 137.96307143 -114.53443657
v 30.75953296 80.82922254 -41.06569643
v 14.58867789 137.67926754 13.55881111
v -46.4380083 78.30392063 3.35013232
v 2.12990553 159.54709141 62.91752087
v 48.69352488 79.64275407 -7.45535332
v -26.50723169 111.02425833 94.60158382
v 42.39293638 85.81182369 60.67123048
v 11.06135294 48.74187599 35.11487768
v -32.81906971 112.14960446 -114.44382593
v -19.55661409 62.58950612 60.98719165
v 39.88038964 132.82903973 -98.50247845
v -43.05042036 73.51299418 75.18249379
v 39.16797332 115.28303042 -28.49084674
v -36.77267173 116.50515079 78.80888752
v -15.30118421 68.16886734 -111.07696572
v 9.81554064 141.0764369 122.47684609
v 5.44723869 55.56728232 -57.04017565
v 28.81469241 86.04208613 86.17465988
v -13.26182917 89.28989746 -123.42199821
v -1.70926026 78.58945953 96.62940732
v -20.61381023 134.1240816 20.22892383
v 20.09692732 71.19439554 76.24926655
v 46.00913426 97.0107775 -64.45081169
v -38.67631603 53.4197439 -86.74415898
v -27.90666829 72.20139785 37.60900324
v 44.50249955 118.21018949 -9.46710059
v -21.44437657 109.09015127 129.50505588
v -36.17678052 123.11825863 -66.60276639
v 11.36435087 59.96472575 -70.23268356
v 39.33115504 118.16648027 60.12014536
v 45.56899389 68.18888463 -75.99244519
v -44.07774417 112.8189116 -2.99338773
v 32.32988698 75.29236327 38.53380924
v 45.13557395 82.91766435 -99.32348497
v -8.94825254 60.58498573 -65.42194789
v 28.54329252 36.16149874 68.36278543
v 38.57308298 91.35263842 40.92685228
v -36.34123672 116.26847154 -26.49740785
v 25.34034848 65.40366831 -111.47514179
v 13.31832281 56.16320713 60.7397357
v -25.15600219 155.34686868 -77.30387052
v 27.07021917 41.15319647 -93.98974599
v -21.1764449 59.51962546 27.24382716
v 38.57459987 115.31654138 79.37232384
v -43.51332379 79.55815822 -98.69326195
v 19.73835021 139.44360206 136.83604999
v 42.98835716 38.66748106 62.43941005
v 27.34600895 155.15232175 -77.21727294
v -31.70922377 135.16148606 126.03022712
v -34.85818114 34.62477569 -110.06797909
v 36.67950733 5.28439179 62.42802852
v 39.52379625 26.79645993 -88.83025824
v 34.46885204 14.61462836 85.40632235
v -22.32286199 136.58766278 83.38209909
v 37.05336022 10.42057884 -103.28683162
v 15.37953726 144.723952 65.5540236
v -0.12594819 50.94264744 -33.57616731
v 31.99544222 -0.27416487 -100.37210295
v 50.5386966 1.57920578 -81.28745528
v 24.80988549 136.95802105 81.94621614
v -37.77999506 134.1878153 -98.97444487
v 0.60967979 36.95046319 47.47270299
v 37.93863808 122.53647073 -64.66377742
v 31.47895773 9.59386956 69.95118381
v -41.78184259 25.29813936 -96.78550378
v -32.14057478 31.25163668 59.7606886
v -27.66057322 42.97278255 -88.75268524
v -24.89190597 51.70203239 60.34625434
v -40.75131217 13.27549565 89.3882174
v 30.35403163 82.76576336 -50.59432979
v -31.17427969 11.13270474 -97.42753557
v 36.33053203 60.77716851 59.64566838
v 43.73148345 48.08986437 -97.16002392
v -27.97216371 0.2172428 84.9570278
v -39.85405274 0.47806281 -77.29707328
v 16.06664635 58.24748226 -25.78313862
v 44.19528935 17.54077216 78.84025755
v -48.43072234 0.45054743 87.63984871
v -32.31991194 64.63423631 -112.46198939
v -13.82571551 83.31632735 151.72360475
v -26.79303011 75.16633595 -61.68048113
v -35.1322812 58.55454846 59.41704885
v -29.45906674 134.91517259 65.25193053
v 1.15020918 159.31807824 -75.78662713
v -21.86202749 109.44296441 -123.85129948
v -23.10394913 135.03657241 -116.30123845
v -39.84947804 9.36687253 -102.71918543
v -12.15885128 58.23772804 -27.01334511
v -4.76109207 53.70772166 -12.32454596
v -43.53058571 37.37820436 69.84813557
v 4.28491877 145.63097046 -116.46663791
v -19.20200564 138.6064329 -36.53902387
v 23.37077193 108.43936612 131.28031591
v -11.70015051 139.25064882 3.33086148
v -4.32798895 70.40447283 162.14677576
v -4.74658493 42.9160909 -94.51616712
v -47.79104271 10.93720734 -97.48809627
v -16.50703034 61.60937895 -73.51698804
v 50.08613303 1.21543834 -101.91620888
v -43.6018607 59.22937595 -93.79583269
v 42.4211142 69.35795918 11.41969514
v 16.91841925 113.77541645 -126.38121614
v -8.50429353 101.54310243 153.72472893
v -36.26960651 97.87306188 84.75962467
v -44.05310898 98.61983641 -61.6302315
v 35.72705154 0.73689549 -80.06320357
v -4.02638161 84.33353631 114.16384308
v -40.01124847 76.61178591 54.54090896
v 6.78493671 71.38872047 172.60004472
v 21.05751483 101.51365013 115.4766221
v -5.69396439 83.56318086 174.23391643
v 14.18269412 156.40571613 -80.42881433
v 19.45350225 86.97142723 130.68492393
v -37.34371174 -0.21171284 94.44398006
v -0.37949701 100.14246575 -119.15980349
v 27.58159613 111.52973571 -120.57007679
v -11.62416282 156.45996443 -75.4618958
v -0.21311243 116.31310961 -121.05824905
v 12.09124612 99.82107064 155.27329914
v 0.04376652 159.82927759 -121.76293447
v -13.94274706 143.39057006 52.53348198
v 2.13728165 144.21268064 -147.62099152
v 7.29076931 84.2247643 116.40746929
v 11.71601434 62.86940256 -102.38902015
v -4.4202563 146.61512029 -115.69182957
v 7.61735416 45.72252458 -97.39771604
v -46.49211739 11.08060218 -83.9936969
v 36.04787542 60.72504435 -1.42721418
v 16.72463796 58.59015715 -95.3009793
v -36.43412751 113.66896959 -40.39939909
v -45.74565968 -0.87456836 68.94918163
v 9.65604376 49.23896003 13.48758112
v 43.37281394 63.4501536 74.56470837
v 44.74144935 0.10641325 67.37945645
v -31.16418464 8.12568533 -87.40160936
v 30.00027523 50.83157068 -110.16233397
v -38.39950139 18.53068237 -84.13234904
v 31.61299197 21.66072411 -96.14990442
v 13.84237739 88.40943912 -121.27080675
v -16.32981731 97.0324533 113.92476847
v -36.47254919 63.35262811 -0.9541923
v 41.70084697 -0.04534372 94.64860765
v -44.12768659 86.47831125 -11.6782491
v 39.68049995 101.29916751 34.68646447
v -4.7973176 153.78961471 -103.66332949
v 8.15597168 54.25836275 -13.73883592
v -42.89010922 17.04440097 79.05738034
v -3.0673176 155.91138507 34.39389281
v -36.93252204 8.30186628 66.44688115
v 17.98881864 61.53776794 -73.97694889
v -27.11475884 32.10142585 -94.97229252
v -9.29930217 57.39581137 72.26026704
v -14.79022848 58.20994385 -92.95013338
v 16.40613383 132.21831076 119.4345828
v -23.76518935 59.8740287 74.3712319
v -32.90656255 65.08689589 82.9696997
v 27.43303856 130.9481825 18.14876615
v -27.01827502 81.32923237 -48.33435853
v -39.60883853 97.74218625 33.26197745
v -17.23245669 69.56526354 77.41259753
v 25.94712919 131.78053695 39.1490193
v -18.04182246 88.80709135 130.85953998
v -5.71867759 47.55436345 20.72154838
v -4.68503776 128.7094094 143.92549253
v 40.42191254 21.65477173 66.70598265
v 17.91086042 127.39698081 137.33821996
v 6.23291193 71.68888501 152.08440561
v 6.57905984 152.78056088 -108.78380032
v -14.16885603 129.06897178 123.88569849
v 32.45447181 44.01236636 58.41798925
v -24.68699276 63.80382119 -111.36394742
v 34.2727138 147.92279178 -90.1080814
v 27.63632686 55.46658623 57.96042376
v -30.35723823 -0.37596023 -99.57356189
v 38.57471748 48.72247794 83.83020797
v -37.6844641 100.34788539 -47.4883088
v 30.96190921 -0.08139404 88.04424598
v 14.23921417 151.24926698 -53.20069618
v -20.97751288 52.17880632 -97.20242026
v -36.79521159 88.66769576 39.2499554
v -15.70818565 126.57067955 142.18037846
v 35.75522215 63.59385566 -112.36821055
v 5.33371617 155.5518467 -135.18961107
v 6.29738429 63.62758743 80.62883843
v 2.49871495 149.0356523 -134.7758244
v 39.11012959 113.7498884 -41.68536837
v -26.00509052 34.30924176 64.53848454
v 37.08101961 96.36445425 84.47576318
v 31.68539024 -0.67874454 71.84748364
v 47.51027741 105.68029469 1.3001998
v 52.18251455 -0.18245016 83.78764362
v -1.62466021 52.69624847 -53.83789405
v 31.64194744 135.22826797 66.84411635
v 8.02553467 113.56285395 -154.27700453
v 41.21086739 99.36235787 -49.18382608
v -26.96604046 84.48530619 85.62691577
v 8.86213679 138.14809456 -145.18057183
v 29.95885576 76.19993857 -61.75845736
v 7.5450495 147.65090225 94.44188713
v 2.77689348 114.21750574 -150.06567389
v 15.40629059 79.95596053 157.75482869
v -36.52120512 37.07127258 -90.23553922
v -22.74032089 98.74094102 97.5878851
v 46.43740826 85.23771629 14.64244796
v 0.10981322 105.51777781 156.27400044
v -19.8484033 148.45860711 -106.63376094
v -20.04622885 110.74832214 115.93196985
v 5.06449142 154.34551934 31.91405778
v -38.69632372 37.1430276 60.43400879
v 40.36771225 46.93410347 -91.04270164
v 31.46494323 131.90611784 -8.15090375
v -34.69975653 40.42574799 82.63070185
v 4.23433131 81.87859748 98.37483822
v -4.03748743 60.3115673 -72.52555134
v 42.57570336 13.4391766 89.21408138
v -23.97936476 44.69866659 72.76634926
v -36.95846291 70.13599092 16.67808276
v 43.68075378 27.28039832 -97.79930993
v -10.44492001 152.51133552 -53.47933494
v 43.71690971 43.41226048 71.00335403
v -26.87188479 125.00063756 35.39651423
v -12.20644875 141.32061904 132.842519
v -24.31525921 73.0802961 -39.41357395
v 2.01536414 151.37879853 -26.37011325
v -3.83862381 94.47312274 -148.42033904
v -9.96516989 64.19528642 -102.71949265
v -35.91761902 22.89010255 82.52368376
v 4.56200553 102.27117256 -146.54768074
v -15.13174529 126.94362039 135.29593793
v -3.28201503 155.77312656 -129.40706237
v -10.20369486 56.1736814 -80.42107624
v 21.98739717 56.41424411 26.39331074
v -29.6663009 -0.56217383 71.63011603
v 31.50129837 56.29562846 -77.21055251
v -21.88368168 78.75814345 -133.29160714
v -31.62488234 148.54041878 -86.92418979
v 19.84964178 62.82270635 62.86755925
v -29.79689332 10.52264302 70.68862174
v 37.85936337 116.11297031 -109.0115654
v -0.77925282 88.02687846 -145.18821392
v -16.74628616 137.55023523 138.83509084
v 23.01977811 69.30741972 -41.20032111
v 1.54544821 35.65573814 63.90121947
v -25.52772615 85.34643849 -138.49600658
v -40.76834367 71.10579443 -13.41969215
v 43.76363593 85.46105548 79.94236058
v -26.18037862 69.17125354 45.82060931
v -14.0070328 132.55082339 120.16816609
v -15.77037966 138.10728233 135.68562704
v 26.33378211 54.43703267 73.92390067
v -18.20432133 135.56049738 127.10040809
v 17.17001307 127.87523083 133.55851394
v -16.4801678 79.64694474 -143.15088581
v -32.42515152 13.99313231 86.09520035
v 18.71199845 133.55030061 127.42529303
v -17.15786708 133.28312499 127.09873759
v -10.09755762 52.18459309 42.4567901
v 37.37681227 127.97136183 133.11077949
v -15.89629177 123.33760877 131.32658129
v 31.80102249 48.75659134 82.24940368
v 25.96019323 101.50635846 98.62236138
v 37.64935704 32.45960574 80.74138648
v 37.5200343 46.11624596 -116.07915693
v -43.2310464 42.91827024 -99.53911487
v 10.4292998 131.05101473 142.47112359
v 15.03867569 149.64457635 -108.72969123
v -35.22212139 46.48939321 -115.44052377
v 1.41683997 84.41216388 -110.9183251
v -18.35469582 120.4771044 125.97235459
v -35.98585062 113.49303345 51.43838259
v 35.80060188 35.69712641 -110.87516072
v 42.50535963 66.60070106 -10.57473838
v 14.7300158 69.9447514 -111.19516854
v 10.43327206 105.73986653 -149.76244795
v 17.01833889 122.66049153 146.34181468
v -22.95490433 139.24748542 -45.48461165
v 21.37325758 113.76453415 118.06774271
v -44.87243539 -0.77126571 -103.28869414
v -26.48079638 124.98559819 129.69077025
v -36.49588829 78.87808878 -141.82039365
v 42.56308815 8.67236376 -101.70831708
v -50.78348838 -0.43569528 -95.35069131
v -12.80717147 119.48581891 -124.16890715
v 2.17489598 94.69363456 -153.45546038
v 31.21030362 4.73115614 -93.99944261
g Group38572
f 150 164 146
f 20 17 2
f 4 274 247
f 5 6 4
f 9 7 270
f 8 7 9
f 137 111 293
f 98 121 199
f 11 39 112
f 37 97 103
f 181 159 107
f 123 148 46
f 47 232 13
f 44 17 229
f 125 113 180
f 131 185 141
f 15 99 194
f 189 37 33
f 177 239 50
f 161 56 12
f 41 213 49
f 244 286 13
f 18 284 190
f 200 257 52
f 94 260 290
f 162 208 179
f 20 2 226
f 182 64 259
f 21 177 50
f 61 198 235
f 3 217 22
f 72 3 22
f 222 208 162
f 119 55 250
f 16 101 239
f 100 30 126
f 62 25 48
f 151 25 264
f 26 51 58
f 221 170 38
f 242 130 102
f 112 237 110
f 261 38 170
f 43 198 61
f 52 257 29
f 17 196 2
f 30 32 126
f 230 234 174
f 23 19 31
f 49 213 216
f 122 32 30
f 266 72 24
f 85 116 99
f 106 263 241
f 217 74 22
f 1 78 172
f 35 232 47
f 210 241 53
f 36 279 40
f 1 62 78
f 200 157 120
f 120 136 109
f 202 261 58
f 202 40 279
f 139 166 112
f 72 22 139
f 10 36 40
f 191 255 51
f 81 190 17
f 204 81 17
f 15 85 99
f 97 63 27
f 170 43 275
f 205 234 230
f 44 31 17
f 23 31 44
f 38 158 221
f 225 266 24
f 63 79 27
f 301 143 136
f 260 35 47
f 252 168 60
f 48 162 179
f 74 179 22
f 60 168 147
f 291 157 57
f 39 11 50
f 161 50 56
f 51 250 55
f 90 51 25
f 49 52 41
f 52 29 81
f 116 85 171
f 13 114 244
f 280 278 54
f 90 25 151
f 25 55 48
f 25 51 55
f 50 11 56
f 148 294 46
f 91 200 52
f 60 147 154
f 268 255 54
f 255 40 202
f 294 254 46
f 27 79 104
f 228 252 60
f 236 299 289
f 80 107 150
f 261 26 58
f 206 279 36
f 10 206 36
f 63 123 46
f 42 15 118
f 64 34 3
f 111 172 184
f 183 188 65
f 10 151 264
f 190 284 66
f 17 190 66
f 240 64 3
f 199 277 45
f 83 118 282
f 169 189 197
f 280 54 82
f 95 238 280
f 70 228 60
f 73 156 289
f 280 82 71
f 183 65 95
f 72 139 101
f 32 24 72
f 303 156 73
f 77 117 236
f 48 211 62
f 48 179 211
f 241 210 106
f 35 260 94
f 117 77 76
f 156 303 124
f 236 70 77
f 77 124 76
f 217 78 74
f 211 179 74
f 46 254 79
f 63 46 79
f 80 181 107
f 170 275 80
f 204 41 81
f 41 52 81
f 69 82 54
f 160 207 152
f 220 118 83
f 68 169 89
f 227 30 100
f 108 230 174
f 15 42 85
f 155 169 220
f 86 265 28
f 100 126 265
f 245 256 205
f 165 108 167
f 19 88 204
f 88 260 47
f 89 105 68
f 83 155 220
f 188 69 54
f 54 255 191
f 49 91 52
f 70 236 228
f 132 149 251
f 84 205 256
f 155 89 169
f 296 192 93
f 94 75 35
f 150 107 164
f 95 280 71
f 209 160 152
f 165 230 108
f 92 272 132
f 118 97 285
f 169 68 189
f 45 98 199
f 158 125 180
f 194 99 176
f 53 176 99
f 100 86 227
f 100 265 86
f 32 72 101
f 32 101 16
f 110 237 59
f 79 254 224
f 97 27 103
f 27 104 103
f 102 130 186
f 59 135 163
f 105 83 68
f 93 300 296
f 75 106 210
f 107 75 164
f 107 106 75
f 107 159 106
f 108 174 30
f 108 30 227
f 104 143 301
f 224 59 163
f 112 110 11
f 56 11 110
f 111 295 172
f 128 131 141
f 166 2 112
f 112 2 237
f 98 113 127
f 219 185 131
f 171 114 249
f 114 13 232
f 115 83 105
f 155 83 145
f 116 53 99
f 249 114 232
f 299 236 117
f 117 76 299
f 97 118 63
f 118 123 63
f 119 222 55
f 290 19 23
f 18 120 109
f 200 120 134
f 137 283 223
f 129 98 127
f 122 24 32
f 221 214 178
f 15 123 118
f 194 123 15
f 77 70 124
f 124 70 156
f 38 125 158
f 128 141 231
f 126 32 16
f 198 177 21
f 127 14 129
f 219 111 137
f 128 231 279
f 295 1 172
f 14 223 129
f 98 129 121
f 284 130 66
f 17 66 196
f 131 111 219
f 128 111 131
f 132 87 96
f 96 149 132
f 33 37 286
f 136 37 301
f 134 120 18
f 257 18 29
f 135 102 163
f 135 242 102
f 133 136 120
f 133 37 136
f 137 223 14
f 137 14 127
f 102 186 163
f 224 163 143
f 39 139 112
f 101 139 239
f 186 201 138
f 109 136 143
f 231 141 125
f 185 125 141
f 142 13 286
f 47 13 144
f 203 143 248
f 143 203 109
f 144 13 142
f 144 147 168
f 145 83 115
f 300 93 145
f 250 146 119
f 119 290 23
f 144 142 147
f 147 291 57
f 56 294 148
f 176 56 148
f 149 165 167
f 149 167 251
f 250 150 146
f 261 150 26
f 238 95 65
f 65 188 238
f 69 152 82
f 183 69 188
f 153 93 192
f 145 93 153
f 154 147 57
f 91 281 200
f 155 153 89
f 145 153 155
f 289 156 60
f 156 70 60
f 133 120 157
f 291 133 157
f 45 287 225
f 225 180 45
f 159 263 106
f 159 61 235
f 233 71 160
f 160 71 195
f 21 50 161
f 159 21 263
f 55 162 48
f 222 162 55
f 143 163 248
f 186 138 163
f 164 94 146
f 164 75 94
f 96 87 165
f 96 165 149
f 226 2 166
f 22 166 139
f 167 108 227
f 167 84 256
f 168 216 47
f 168 47 144
f 169 197 85
f 169 85 220
f 28 265 170
f 178 170 221
f 171 244 114
f 197 189 33
f 172 78 34
f 64 172 34
f 178 28 170
f 86 28 178
f 174 122 30
f 174 178 214
f 179 208 175
f 229 17 20
f 241 176 53
f 176 12 56
f 288 239 177
f 177 198 288
f 86 178 173
f 174 173 178
f 179 20 22
f 179 175 20
f 45 180 98
f 98 180 113
f 275 181 80
f 61 159 181
f 121 182 199
f 223 121 129
f 95 152 183
f 152 69 183
f 64 184 172
f 137 293 283
f 113 125 185
f 127 113 185
f 109 203 186
f 18 109 284
f 266 3 72
f 266 240 3
f 238 188 90
f 90 191 51
f 68 97 189
f 189 97 37
f 29 18 190
f 81 29 190
f 188 54 191
f 188 191 90
f 105 89 192
f 153 192 89
f 193 238 10
f 193 10 278
f 148 123 194
f 176 148 194
f 160 195 207
f 71 82 195
f 196 130 242
f 196 66 130
f 85 197 171
f 171 197 33
f 43 126 198
f 126 16 198
f 199 182 259
f 187 199 269
f 57 157 200
f 154 57 200
f 248 201 140
f 203 201 186
f 261 202 231
f 231 202 279
f 203 248 140
f 215 203 218
f 204 17 31
f 31 19 204
f 234 205 86
f 84 86 205
f 206 62 279
f 264 25 62
f 152 207 82
f 195 82 207
f 208 44 175
f 23 44 208
f 160 209 233
f 95 209 152
f 35 210 232
f 75 210 35
f 78 62 211
f 78 211 74
f 212 140 215
f 203 140 218
f 213 41 204
f 88 213 204
f 122 174 214
f 122 214 221
f 203 215 201
f 215 140 201
f 213 88 216
f 47 216 88
f 78 217 34
f 34 217 3
f 218 140 212
f 292 212 215
f 219 137 127
f 219 127 185
f 118 220 42
f 85 42 220
f 221 24 122
f 225 24 221
f 23 208 222
f 119 23 222
f 223 283 182
f 182 121 223
f 224 143 104
f 79 224 104
f 225 221 158
f 225 158 180
f 22 226 166
f 22 20 226
f 227 86 84
f 167 227 84
f 228 49 252
f 91 49 228
f 175 229 20
f 44 229 175
f 245 205 230
f 245 230 165
f 261 231 38
f 231 125 38
f 53 232 210
f 249 232 53
f 233 95 71
f 209 95 233
f 234 86 173
f 234 173 174
f 235 21 159
f 235 198 21
f 228 236 91
f 236 289 91
f 135 237 242
f 237 135 59
f 238 151 10
f 238 90 151
f 239 139 39
f 239 39 50
f 269 240 266
f 269 199 259
f 241 12 176
f 241 263 12
f 196 242 2
f 2 242 237
f 243 218 302
f 246 215 218
f 244 33 286
f 171 33 244
f 87 272 165
f 132 272 87
f 243 246 218
f 258 302 292
f 5 247 267
f 4 247 5
f 201 248 138
f 138 248 163
f 53 116 249
f 249 116 171
f 51 26 250
f 26 150 250
f 132 251 92
f 272 92 256
f 252 216 168
f 49 216 252
f 253 246 243
f 258 271 302
f 59 254 294
f 254 59 224
f 255 202 58
f 255 58 51
f 167 256 251
f 92 251 256
f 257 134 18
f 200 134 257
f 258 253 271
f 258 292 253
f 259 240 269
f 240 259 64
f 19 260 88
f 260 19 290
f 261 80 150
f 261 170 80
f 253 243 262
f 271 243 302
f 161 12 263
f 263 21 161
f 10 264 206
f 264 62 206
f 265 126 43
f 170 265 43
f 225 287 266
f 67 266 287
f 247 274 267
f 6 5 267
f 268 40 255
f 10 40 268
f 269 266 67
f 187 269 67
f 276 270 273
f 9 270 276
f 271 262 243
f 298 271 253
f 272 256 245
f 165 272 245
f 270 7 273
f 7 8 273
f 6 274 4
f 6 267 274
f 275 43 61
f 181 275 61
f 8 276 273
f 8 9 276
f 199 187 277
f 297 187 67
f 278 10 268
f 278 268 54
f 128 279 1
f 279 62 1
f 280 238 193
f 280 193 278
f 281 154 200
f 91 289 281
f 282 118 285
f 83 282 68
f 184 64 283
f 283 64 182
f 284 109 186
f 130 284 186
f 285 97 68
f 282 285 68
f 286 133 291
f 37 133 286
f 45 277 287
f 287 297 67
f 16 239 288
f 198 16 288
f 281 289 154
f 289 60 154
f 146 94 290
f 146 290 119
f 142 286 291
f 147 142 291
f 292 215 246
f 292 246 253
f 293 184 283
f 111 184 293
f 56 110 294
f 294 110 59
f 1 295 128
f 128 295 111
f 296 105 192
f 296 115 105
f 297 287 277
f 297 277 187
f 253 262 298
f 262 271 298
f 299 73 289
f 299 76 73
f 300 115 296
f 300 145 115
f 103 104 301
f 37 103 301
f 292 302 212
f 302 218 212
f 73 76 303
f 124 303 76

 